name C:\Users\u0150099\Documents\master_thesis\3dpredictsim\Results\debug\Fal_s1_mtj_sc_cspx10_oy_MTPm_k1_d01_MTJm_nl_MG_exp_table_d01_PF_Gefen2002_ls146_PIM2_w1e+05_w1e+05_ig21.mot
datacolumns 128
datarows 4
range 0.00000000 0.03230122
endheader
time	pelvis_tilt	pelvis_list	pelvis_rotation	pelvis_tx	pelvis_ty	pelvis_tz	hip_flexion_l	hip_adduction_l	hip_rotation_l	hip_flexion_r	hip_adduction_r	hip_rotation_r	knee_angle_l	knee_angle_r	ankle_angle_l	ankle_angle_r	subtalar_angle_l	subtalar_angle_r	mtj_angle_l	mtj_angle_r	mtp_angle_l	mtp_angle_r	lumbar_extension	lumbar_bending	lumbar_rotation	arm_flex_l	arm_add_l	arm_rot_l	arm_flex_r	arm_add_r	arm_rot_r	elbow_flex_l	elbow_flex_r	pro_sup_l	pro_sup_r	glut_med1_l/activation	glut_med2_l/activation	glut_med3_l/activation	glut_min1_l/activation	glut_min2_l/activation	glut_min3_l/activation	semimem_l/activation	semiten_l/activation	bifemlh_l/activation	bifemsh_l/activation	sar_l/activation	add_long_l/activation	add_brev_l/activation	add_mag1_l/activation	add_mag2_l/activation	add_mag3_l/activation	tfl_l/activation	pect_l/activation	grac_l/activation	glut_max1_l/activation	glut_max2_l/activation	glut_max3_l/activation	iliacus_l/activation	psoas_l/activation	quad_fem_l/activation	gem_l/activation	peri_l/activation	rect_fem_l/activation	vas_med_l/activation	vas_int_l/activation	vas_lat_l/activation	med_gas_l/activation	lat_gas_l/activation	soleus_l/activation	tib_post_l/activation	flex_dig_l/activation	flex_hal_l/activation	tib_ant_l/activation	per_brev_l/activation	per_long_l/activation	per_tert_l/activation	ext_dig_l/activation	ext_hal_l/activation	ercspn_l/activation	intobl_l/activation	extobl_l/activation	glut_med1_r/activation	glut_med2_r/activation	glut_med3_r/activation	glut_min1_r/activation	glut_min2_r/activation	glut_min3_r/activation	semimem_r/activation	semiten_r/activation	bifemlh_r/activation	bifemsh_r/activation	sar_r/activation	add_long_r/activation	add_brev_r/activation	add_mag1_r/activation	add_mag2_r/activation	add_mag3_r/activation	tfl_r/activation	pect_r/activation	grac_r/activation	glut_max1_r/activation	glut_max2_r/activation	glut_max3_r/activation	iliacus_r/activation	psoas_r/activation	quad_fem_r/activation	gem_r/activation	peri_r/activation	rect_fem_r/activation	vas_med_r/activation	vas_int_r/activation	vas_lat_r/activation	med_gas_r/activation	lat_gas_r/activation	soleus_r/activation	tib_post_r/activation	flex_dig_r/activation	flex_hal_r/activation	tib_ant_r/activation	per_brev_r/activation	per_long_r/activation	per_tert_r/activation	ext_dig_r/activation	ext_hal_r/activation	ercspn_r/activation	intobl_r/activation	extobl_r/activation	
          0.00000000	         -2.92221705	         -1.92958509	          3.75748188	          0.00000000	          0.91631781	         -0.00281454	        -11.12487948	          1.93653840	          1.93168226	         28.02929285	          3.43637791	         -4.13451397	        -20.52183106	        -12.85870622	         -3.77208786	          8.35907580	         -8.55750871	         -3.25875067	         -3.28036970	         -7.88445766	         38.46047392	         12.86184881	         -2.95150054	          0.51368462	         -1.58037019	          3.73700159	        -13.76964603	         19.32557423	         -3.72785430	        -13.46870045	          8.37367947	         32.70206009	         23.63088689	         86.51662706	         86.51662706	          0.27327043	          0.05000040	          0.05000016	          0.47016051	          0.11503975	          0.05000070	          0.05000203	          0.05000021	          0.05000021	          0.05000017	          0.05000127	          0.15297237	          0.05000123	          0.05000234	          0.05000857	          0.05482359	          0.36877579	          0.05000249	          0.05000053	          0.05000406	          0.05000252	          0.05000233	          0.43907189	          0.55441933	          0.05000019	          0.05000057	          0.05000026	          0.59681390	          0.25123457	          0.25398951	          0.21519396	          0.28695788	          0.46355621	          0.13417272	          0.68425660	          0.37527178	          0.62288780	          0.05000002	          0.16735822	          0.57969804	          0.05000033	          0.05000005	          0.08424987	          0.05000004	          0.05000011	          0.05000008	          0.05000080	          0.05001377	          0.05000233	          0.05896793	          0.05228765	          0.05000436	          0.26238516	          0.08203554	          0.32895343	          0.07080171	          0.05000103	          0.07608233	          0.09257223	          0.11020854	          0.08893215	          0.17198131	          0.05000215	          0.05000881	          0.10895225	          0.05001502	          0.05180399	          0.17043236	          0.07668021	          0.07339536	          0.08341604	          0.05001596	          0.05000952	          0.05000035	          0.05000200	          0.05000169	          0.05000124	          0.06286627	          0.05000108	          0.05461224	          0.21084966	          0.05897264	          0.05000164	          0.46309548	          0.27316246	          0.37474066	          0.20389798	          0.54934564	          0.05071548	          0.05107433	          0.13018298	          0.14877170	
          0.01076707	         -2.92741543	         -1.97129310	          4.04353297	          0.01696514	          0.91469166	         -0.00259713	        -11.91913831	          1.61820230	          1.70852711	         27.91691328	          3.61970365	         -4.01102213	        -20.56639524	        -12.88404416	         -4.72983376	          8.07133457	         -8.09681727	         -3.41950803	         -4.69191728	         -7.69077360	         41.40536613	         12.06035769	         -2.80625114	          0.66187024	         -1.69835499	          3.50440529	        -13.72675804	         19.38770949	         -4.43173895	        -13.45060532	          7.87077547	         33.80247836	         22.87134869	         86.51662706	         86.51662706	          0.26572563	          0.05000016	          0.05000006	          0.45632501	          0.09753699	          0.05000029	          0.05000173	          0.05000024	          0.05000020	          0.05000019	          0.05000198	          0.18300490	          0.05550155	          0.05000135	          0.05000423	          0.07235301	          0.31267083	          0.05722597	          0.05000043	          0.05000184	          0.05000113	          0.05000095	          0.37226818	          0.62689039	          0.05000008	          0.05000019	          0.05000007	          0.51804759	          0.25326866	          0.25603257	          0.21761850	          0.25652310	          0.43747368	          0.11606704	          0.62398775	          0.31817677	          0.55010268	          0.05000001	          0.14189500	          0.49149812	          0.05000026	          0.05000003	          0.08203095	          0.05000004	          0.05000003	          0.05000018	          0.11050013	          0.05000099	          0.05230112	          0.05000107	          0.05000125	          0.05001754	          0.24874435	          0.06955528	          0.31882423	          0.06955533	          0.05363082	          0.06450686	          0.07848792	          0.12726612	          0.08375484	          0.20560145	          0.05000116	          0.05471382	          0.09241952	          0.05001223	          0.05920481	          0.21840926	          0.06501372	          0.06222862	          0.13992291	          0.05186169	          0.05268935	          0.05000004	          0.05000009	          0.05000009	          0.05000007	          0.05897252	          0.05897250	          0.05897250	          0.25804965	          0.05000018	          0.05000028	          0.48235419	          0.28065999	          0.40832873	          0.25763814	          0.56671349	          0.06955362	          0.05289899	          0.11738197	          0.12613647	
          0.02153415	         -2.92978306	         -2.00633416	          4.31482479	          0.03426748	          0.91302291	         -0.00235626	        -12.64417061	          1.27844010	          1.49157355	         27.79198065	          3.80162859	         -3.85944285	        -20.70563088	        -13.59343553	         -5.84243266	          7.39186798	         -7.50888739	         -3.60734731	         -6.20711380	         -7.41988156	         44.58251591	         11.29143450	         -2.64633078	          0.81194267	         -1.81120280	          3.18323735	        -13.67763542	         19.34120038	         -5.18418176	        -13.45247773	          7.57104991	         34.93398936	         22.16300221	         86.51662706	         86.51662706	          0.22529608	          0.05000020	          0.05000006	          0.38689622	          0.08269723	          0.05000098	          0.05000705	          0.05000033	          0.05000029	          0.05000035	          0.05000055	          0.15516134	          0.11073966	          0.05000120	          0.05000970	          0.09042971	          0.26887467	          0.05000229	          0.05000043	          0.05000135	          0.05000093	          0.05000100	          0.31562836	          0.55935240	          0.05000006	          0.05000056	          0.05005994	          0.44409444	          0.23966490	          0.25118227	          0.22084617	          0.21749364	          0.37091306	          0.09840768	          0.52904931	          0.26976695	          0.46640587	          0.05000001	          0.12030596	          0.41671764	          0.05000009	          0.05000002	          0.06955319	          0.05000000	          0.06955527	          0.05000010	          0.09368788	          0.05000167	          0.05035589	          0.05000057	          0.05000098	          0.05000069	          0.21089841	          0.05897262	          0.27031592	          0.05897266	          0.06680632	          0.05469245	          0.06654628	          0.11733120	          0.07101344	          0.22649461	          0.05000805	          0.05000160	          0.07835824	          0.05897219	          0.05897245	          0.25419173	          0.08203661	          0.08203668	          0.29232874	          0.09675899	          0.05000121	          0.08203705	          0.07044396	          0.13147999	          0.11686802	          0.05000001	          0.05000003	          0.05000000	          0.23838320	          0.05000053	          0.07340722	          0.48773333	          0.30747492	          0.43079771	          0.40125276	          0.59245428	          0.05897265	          0.05000002	          0.09952255	          0.10694508	
          0.03230122	         -2.92995572	         -2.04459997	          4.57598383	          0.05187684	          0.91130858	         -0.00209987	        -13.30582934	          0.90831203	          1.27275089	         27.60717786	          3.96346295	         -3.65987388	        -20.91382028	        -14.89944759	         -7.13563342	          6.38580536	         -6.82590463	         -3.88817251	         -7.81170905	         -7.15296183	         47.94148360	         10.55386091	         -2.47116834	          0.96940173	         -1.91723484	          2.78237167	        -13.63633483	         19.25146155	         -5.98459231	        -13.47248342	          7.44535663	         36.10833908	         21.51008664	         86.51662706	         86.51662706	          0.19101788	          0.05000194	          0.05054376	          0.32803081	          0.07011527	          0.05000133	          0.05000162	          0.05000057	          0.05000103	          0.05000020	          0.05726908	          0.20346945	          0.16747095	          0.05897274	          0.05854272	          0.10294106	          0.22796637	          0.06621322	          0.05000532	          0.05256949	          0.05310849	          0.05896941	          0.26760618	          0.59005764	          0.05897254	          0.05000163	          0.05000015	          0.37652635	          0.20320040	          0.21296542	          0.18724490	          0.18440242	          0.31447940	          0.08343514	          0.44855549	          0.22872247	          0.39544319	          0.06896290	          0.10200166	          0.35331487	          0.05000008	          0.05000006	          0.05897125	          0.05392683	          0.05897258	          0.05000038	          0.32931818	          0.05000010	          0.41403785	          0.05000079	          0.05000035	          0.05000032	          0.17881065	          0.05000011	          0.22918793	          0.05000012	          0.06955473	          0.06956216	          0.19861066	          0.09948357	          0.11491477	          0.28632987	          0.05000143	          0.06955940	          0.06643639	          0.05000010	          0.05000010	          0.34561655	          0.06955513	          0.06955502	          0.24785154	          0.08203756	          0.13459902	          0.06955529	          0.10903559	          0.13352075	          0.10704967	          0.06955513	          0.06955527	          0.06932247	          0.21132117	          0.09503350	          0.06223853	          0.67293494	          0.51463349	          0.36525270	          0.56574597	          0.63853349	          0.05000008	          0.05220056	          0.08438041	          0.09067360	
